PathFileType	4	(X/Y/Z)	C:\Users\WrightLab\Desktop\Jo\P3_14.trc
DataRate	CameraRate	NumFrames	NumMarkers	Units	OrigDataRate	OrigDataStartFrame	OrigNumFrames
100.00	100.00	       22	19	mm	100.00	85	       672
Frame#	Time	Headset_Front			Headset_Back			Headset_Left			Headset_Right			Left_Shoulder			Right_Shoulder			Sternum			C7			Left Elbow			Right Elbow			Left Wrist			Right Wrist			Left ASIS			Right ASIS			S2			Left Knee			Right Knee			Left Ankle			Right Ankle			
		X1	Y1	Z1	X2	Y2	Z2	X3	Y3	Z3	X4	Y4	Z4	X5	Y5	Z5	X6	Y6	Z6	X7	Y7	Z7	X8	Y8	Z8	X9	Y9	Z9	X10	Y10	Z10	X11	Y11	Z11	X12	Y12	Z12	X13	Y13	Z13	X14	Y14	Z14	X15	Y15	Z15	X16	Y16	Z16	X17	Y17	Z17	X18	Y18	Z18	X19	Y19	Z19	

85	0.840	-677.87677	1496.65161	-1183.35974										-375.36942	1293.36182	-1266.62378	-732.59998	1293.84521	-1337.26685	-572.30798	1177.44751	-1177.23303				-310.75366	960.36273	-1245.27051				-359.76645	784.22723	-1139.80078	-853.01672	779.16968	-1211.70117	-469.91180	808.10327	-1183.36938										-705.77313	402.59619	-1239.91882	-395.48679	196.85843	-1462.80859	-685.20697	70.05184	-1289.09094	
86	0.850	-680.38788	1497.40930	-1175.94531	-716.04730	836.35913	-1224.74121							-378.32382	1293.64026	-1259.55078	-735.50946	1293.57263	-1327.73267	-574.08466	1176.98218	-1169.75476				-313.79309	961.15637	-1239.81934				-362.77527	785.36945	-1132.62024	-856.43756	779.91846	-1203.27808	-470.24216	810.26532	-1176.46631							-444.35370	390.32687	-1164.36340	-707.78101	403.17953	-1231.94128	-399.97369	202.14063	-1435.36682	-685.18158	70.09669	-1288.99133	
87	0.860													-381.13309	1295.03723	-1255.42505	-738.53326	1294.49792	-1320.84460	-576.57166	1177.43958	-1163.64661				-316.69806	962.50104	-1235.09937	-805.29742	946.16028	-1340.19592	-366.02814	787.16217	-1125.32031	-860.67584	782.01007	-1193.05872	-472.34796	812.54974	-1169.56519							-450.51837	392.79654	-1151.13818	-708.86115	402.36679	-1228.96350	-409.55182	201.22173	-1421.86694	-685.19855	70.05858	-1289.05542	
88	0.870							-685.32635	1498.45813	-1160.92322				-383.80420	1295.94348	-1249.94177	-741.81140	1295.48303	-1313.70190	-576.85083	1177.57581	-1158.36780				-319.98059	963.71283	-1229.17834	-810.13782	946.87646	-1331.27209	-368.91266	788.64502	-1118.09412	-864.63776	782.63550	-1183.24573	-474.32281	813.99060	-1164.47583	-720.82391	836.84662	-1213.41052				-455.72186	396.78955	-1131.69153	-709.02753	402.06848	-1229.58813	-416.97235	200.63324	-1402.53845	-685.27728	69.93508	-1289.36853	
89	0.880							-687.69116	1498.83032	-1153.52283				-386.63971	1297.86548	-1246.85718	-744.86438	1296.68005	-1306.89111	-579.70782	1178.50317	-1151.27930				-322.80487	963.97357	-1221.81873	-814.57996	948.10260	-1323.00012	-371.34647	790.14264	-1110.45654	-866.77368	784.28467	-1175.18958	-476.14331	815.72809	-1159.28088							-459.57806	397.86322	-1124.14111	-709.75525	402.57089	-1225.62793	-423.60284	202.04900	-1378.73865	-685.30084	69.90322	-1289.46387	
90	0.890							-689.90308	1499.04163	-1146.11792				-388.67142	1297.29480	-1237.38843	-747.40039	1296.36060	-1297.14343	-581.06799	1178.70374	-1144.75806				-324.74008	963.05426	-1211.38367	-818.78345	948.92999	-1313.64355	-374.65601	792.12378	-1102.60718	-870.86401	785.63214	-1165.67896	-477.33298	818.09772	-1153.73596	-724.23077	837.82635	-1200.13794				-465.03375	403.47498	-1103.79114	-709.70276	402.54559	-1225.39734	-431.07407	197.94661	-1357.61462	-685.32507	69.87429	-1289.56287	
91	0.900							-692.14148	1499.10144	-1138.42456				-391.46179	1297.30811	-1228.77820	-749.61066	1297.69568	-1291.37549	-582.90814	1179.96729	-1138.73608				-327.95853	964.86548	-1206.64331	-822.76123	949.94458	-1305.38647	-376.56360	793.42261	-1095.87659	-873.83350	785.91992	-1155.95679	-480.25772	818.75299	-1149.23096							-470.50143	410.16080	-1083.66052	-710.57111	401.70526	-1221.51868	-439.18280	193.44501	-1338.44653	-685.74103	70.85374	-1287.79626	
92	0.910							-694.24420	1499.10303	-1130.92419				-393.03201	1299.22791	-1226.45117	-752.34521	1298.21899	-1283.15356	-584.42517	1180.81030	-1131.80212				-330.38654	966.74164	-1202.48279	-826.52301	950.93512	-1297.30066	-379.09525	794.99939	-1089.10571	-876.54364	787.64172	-1146.57898	-480.61462	821.31329	-1144.32068	-726.97192	837.53180	-1185.01050				-474.69440	415.23480	-1068.73181	-712.38672	402.47375	-1212.85132	-447.65073	189.99419	-1316.23181	-686.15259	71.59309	-1285.62756	
93	0.920							-696.32892	1499.01819	-1122.94641				-395.47122	1299.51501	-1219.01294	-754.42120	1299.31287	-1275.78589	-586.72961	1180.52051	-1125.15039				-333.04114	966.41095	-1195.16724	-829.92786	951.70734	-1288.51404	-380.77765	796.80029	-1081.33252	-878.40985	787.81152	-1137.66699	-483.16391	822.80688	-1139.95190							-478.65988	417.20709	-1055.09912	-712.57135	401.49866	-1213.35620	-454.76611	185.75748	-1293.86768	-686.16809	71.55786	-1285.68591	
94	0.930							-698.15381	1498.95605	-1115.49316				-397.19763	1300.73828	-1215.24414	-756.77008	1299.21838	-1267.83801	-587.69800	1181.09802	-1118.90710				-335.75845	968.33508	-1189.96680	-833.03192	952.74451	-1280.04309	-382.85651	797.64581	-1074.67834	-881.49664	789.84619	-1129.27063	-484.27255	823.27686	-1134.26367							-481.99777	423.01428	-1038.25537	-713.46796	401.23682	-1209.92395	-461.77243	180.55190	-1270.13794	-686.15326	71.56713	-1285.62268	
95	0.940							-700.01508	1498.92432	-1108.08813				-399.74954	1302.04834	-1211.02380	-758.89581	1300.07214	-1260.24207	-588.63934	1182.24304	-1112.65845				-338.06287	968.80170	-1183.64099	-836.13965	953.36700	-1271.84143	-384.67255	798.96362	-1067.36414	-883.53094	791.13330	-1121.17139	-487.59866	823.95178	-1128.42615							-485.17639	427.13297	-1025.78296	-713.50421	401.08313	-1210.03320	-469.71902	174.29128	-1249.47412	-686.49615	71.93120	-1283.45483	
96	0.950							-701.82764	1498.39771	-1100.02100				-401.24637	1302.11145	-1204.49170	-761.05103	1300.85315	-1253.09888	-589.70605	1181.71008	-1105.90356				-340.55341	969.16827	-1177.06775	-838.99878	954.11432	-1264.09705	-386.83731	799.90826	-1060.68921	-885.37622	791.86499	-1112.32800	-487.45679	825.28552	-1120.12183							-488.87860	431.41931	-1013.75183	-713.83160	400.44724	-1208.11011	-475.36752	167.26093	-1224.54065	-686.47729	71.95293	-1283.37781	
97	0.960	-582.22522	1358.79895	-1280.26660				-703.55865	1498.36975	-1092.47400				-404.14191	1304.02808	-1201.85913	-763.29663	1300.94543	-1245.19580	-592.02795	1182.49670	-1099.18005				-342.27481	970.54956	-1173.10229	-841.66309	954.69232	-1256.13635	-387.99988	800.08545	-1053.15759	-887.34143	791.81641	-1102.56177	-489.92270	824.94867	-1117.56763							-491.64563	435.32098	-999.70276	-714.34924	400.12616	-1205.88196	-481.89560	161.78262	-1198.26807	-686.46185	71.93623	-1283.30408	
98	0.970	-584.28424	1359.37488	-1273.44385				-704.98981	1498.39539	-1085.30750				-404.99884	1302.75281	-1192.80737	-765.57764	1300.88892	-1237.52087	-593.57831	1182.17773	-1091.94116				-344.30200	970.27008	-1166.19702	-844.15466	954.83826	-1247.70593	-389.76474	800.98480	-1045.88049	-889.32898	793.36896	-1094.63379	-491.42685	825.51288	-1110.46008							-494.70914	435.38849	-996.48047	-714.58258	398.87317	-1204.83081	-487.21786	153.38824	-1174.87744	-686.33167	72.12321	-1282.78235	
99	0.980				-600.14172	1576.52258	-1254.66931	-706.55695	1498.21716	-1077.25464				-406.84973	1302.79114	-1186.28894	-767.30743	1301.62842	-1230.63293	-594.24103	1182.56616	-1085.66309				-346.30316	969.84583	-1159.40027	-846.46326	954.99017	-1239.32483	-390.95901	801.68994	-1039.72998	-890.64917	792.64661	-1086.55298	-492.62289	824.90741	-1103.90259							-496.71100	441.52032	-979.03931	-715.91016	400.41995	-1198.59570	-493.25232	147.66606	-1147.65918	-686.25177	72.25614	-1282.46729	
100	0.990	-588.38745	1358.98901	-1259.44800	-602.28436	1576.51624	-1247.04907	-707.96954	1498.03723	-1069.76404				-408.46655	1303.33936	-1181.81055	-769.67365	1301.49097	-1222.68567	-596.19098	1182.01685	-1078.29468				-347.65536	970.49042	-1155.44543	-848.53943	955.13995	-1231.46033	-392.18958	802.04785	-1032.77478	-892.17145	793.42468	-1077.06763	-494.51697	825.25940	-1098.70728	-572.55145	905.96167	-1328.21924				-498.85861	444.00931	-968.81696	-716.00085	399.61386	-1198.74536	-499.12549	139.97589	-1121.67969	-686.10608	72.48818	-1281.89026	
101	1.000	-590.06873	1359.36230	-1252.08008	-604.31165	1576.49072	-1239.79797	-709.37213	1497.72571	-1062.20959				-409.46979	1301.44507	-1171.18054	-770.65234	1301.05542	-1215.39941	-597.51843	1181.81238	-1072.23071				-349.20999	969.66040	-1148.11975	-850.50665	954.93945	-1223.25403	-393.56104	801.66632	-1025.35535	-893.07281	792.76080	-1070.52295	-495.47562	826.12030	-1092.85681	-573.84222	906.63788	-1321.96960				-501.79633	445.54126	-962.62793	-716.82397	399.19540	-1195.48706	-503.28931	133.71649	-1094.72437	-686.27277	72.51238	-1280.08850	
102	1.010	-591.68280	1359.24854	-1244.89600	-606.19995	1576.22437	-1232.58582	-710.75879	1497.35034	-1054.66882				-412.06738	1302.04834	-1166.29810	-772.79498	1301.35168	-1208.11743	-599.18048	1182.10938	-1065.43872				-350.52277	968.97968	-1141.37354	-852.23383	954.77466	-1215.30823	-394.49527	801.83795	-1019.43176	-894.60852	793.73615	-1059.96985	-498.16315	825.70972	-1085.28711	-575.50616	906.21643	-1315.31970				-504.00140	446.20993	-954.41455	-716.95740	397.13470	-1195.03662	-507.43542	127.34573	-1067.88867	-686.15326	72.66867	-1279.60510	
103	1.020	-593.72461	1355.35571	-1228.37500	-607.96045	1575.97937	-1224.90930	-711.98376	1496.87891	-1046.97021				-412.80801	1301.85034	-1160.84387	-773.86005	1300.13110	-1200.27625	-600.36829	1180.47449	-1057.10327				-351.72278	968.56348	-1134.68250	-853.81329	954.47748	-1207.58435	-395.62985	801.32306	-1013.19122	-895.46747	794.07031	-1051.80408	-497.88583	826.88818	-1075.01599	-576.79547	906.22913	-1308.52295				-506.50201	448.23508	-945.53052	-717.17291	396.62292	-1194.38965	-509.80801	122.50669	-1039.60120	-686.06488	72.77235	-1279.24402	
104	1.030	-595.19183	1354.86682	-1220.60876	-609.67078	1575.66064	-1217.67859	-713.15308	1496.41235	-1039.23401				-415.04526	1300.65942	-1151.24353	-775.92603	1300.16589	-1192.99634	-602.06647	1180.16992	-1050.93530				-353.26111	968.06329	-1130.79260	-855.34906	953.91772	-1199.82227	-395.91281	800.82056	-1006.88165	-896.37305	793.12238	-1043.50232	-499.02029	827.09283	-1066.41565	-577.98120	906.22626	-1301.99719				-506.74390	447.26160	-937.28088	-717.84161	397.09146	-1190.74194	-514.03174	117.38012	-1012.07635	-686.01672	72.16116	-1278.76062	
105	1.040	-596.53986	1357.63330	-1223.17102	-611.13562	1575.27112	-1210.55298	-714.26123	1495.99231	-1031.70630				-416.23761	1300.62402	-1145.92285	-776.89453	1299.80750	-1186.15503	-603.00800	1179.79260	-1043.11670				-353.80521	967.07727	-1124.54517	-856.51642	953.25873	-1192.08691	-396.08807	800.26648	-1000.02185	-897.99463	793.43719	-1035.75427	-500.94080	826.86005	-1060.07507	-579.19238	905.46710	-1294.28394				-509.30188	446.52686	-930.86676	-717.59436	396.14386	-1191.78418	-518.06201	112.17701	-985.64056	-686.50299	73.56409	-1275.39697	
106	1.050	-597.75317	1356.96265	-1215.41687	-612.55566	1574.57434	-1202.76428	-715.19275	1495.53235	-1023.97241				-417.17368	1298.21350	-1134.10632	-778.70532	1298.77710	-1178.55249	-605.18970	1179.33667	-1035.17883				-355.36588	966.16669	-1115.76440	-857.50568	952.45306	-1184.34033	-396.37991	798.65863	-993.86884	-896.90717	792.12317	-1027.60913	-502.08163	826.21979	-1054.27625	-580.11273	905.56995	-1288.03845				-510.39377	445.64383	-925.87708	-717.62769	395.71075	-1191.80127	-519.31818	108.41464	-959.56464	-686.41016	73.68935	-1275.02307	
